<svg width="167" height="19" viewBox="0 0 167 19" fill="none" xmlns="http://www.w3.org/2000/svg">
<path d="M7.22685 19C5.87291 19 4.65965 18.7798 3.58705 18.3394C2.51445 17.8989 1.65286 17.2471 1.00226 16.3839C0.751765 16.0423 0.548077 15.6731 0.3912 15.2763C-0.0232558 14.228 0.93147 13.2656 2.0587 13.2656H3.02191C4.03211 13.2656 4.76708 14.1693 5.51245 14.8512V14.8512C5.91687 15.2035 6.44438 15.3797 7.09497 15.3797C7.76314 15.3797 8.29065 15.2299 8.67749 14.9305C9.06433 14.6134 9.25775 14.1817 9.25775 13.6356C9.25775 13.1776 9.0995 12.7988 8.78299 12.4993C8.48407 12.1998 8.10602 11.9532 7.64885 11.7594C7.20926 11.5656 6.57625 11.3454 5.74983 11.0987C4.55414 10.7288 3.57826 10.3588 2.82216 9.98887C2.06607 9.61891 1.41548 9.07279 0.870387 8.35049C0.325296 7.62819 0.0527507 6.68567 0.0527507 5.52295C0.0527507 3.79648 0.676967 2.44877 1.9254 1.47983C3.17383 0.493278 4.80031 0 6.80484 0C8.84453 0 10.4886 0.493278 11.737 1.47983C12.4453 2.02955 12.9668 2.70401 13.3016 3.50323C13.7436 4.55852 12.7823 5.54937 11.6382 5.54937H10.4573C9.56157 5.54937 8.89277 4.71993 8.20273 4.14882V4.14882C7.79831 3.79648 7.2796 3.6203 6.64659 3.6203C6.1015 3.6203 5.66191 3.77005 5.32782 4.06954C4.99373 4.35141 4.82669 4.76541 4.82669 5.31154C4.82669 5.91052 5.10803 6.37738 5.6707 6.7121C6.23337 7.04682 7.11255 7.40797 8.30824 7.79555C9.50392 8.20074 10.471 8.58832 11.2095 8.95827C11.9656 9.32823 12.6162 9.86555 13.1613 10.5702C13.7064 11.2749 13.9789 12.1822 13.9789 13.2921C13.9789 14.3491 13.7064 15.3092 13.1613 16.1725C12.6338 17.0357 11.8601 17.7228 10.8403 18.2337C9.82042 18.7446 8.61595 19 7.22685 19Z" fill="white"/>
<path d="M18.4595 0.264256C19.5641 0.264256 20.4595 1.15969 20.4595 2.26426V16.815C20.4595 17.9196 19.5641 18.815 18.4595 18.815H17.9493C16.8447 18.815 15.9493 17.9196 15.9493 16.815V2.26425C15.9493 1.15968 16.8447 0.264256 17.9493 0.264256H18.4595Z" fill="white"/>
<path d="M37.0525 0.264256C38.1571 0.264256 39.0525 1.15969 39.0525 2.26426V16.815C39.0525 17.9196 38.1571 18.815 37.0525 18.815H36.1004C35.2399 18.815 34.5423 18.1174 34.5423 17.2569V13.6252C34.5423 12.5293 33.0068 12.2792 32.659 13.3185V13.3185L32.2727 14.5786C32.2224 14.7429 32.1432 14.8969 32.039 15.0335V15.0335C31.4523 15.8024 30.2917 15.7927 29.7179 15.014L29.7026 14.9932C29.6213 14.8829 29.5558 14.7618 29.5081 14.6334L29.0192 13.3185V13.3185C28.664 12.2666 27.1096 12.522 27.1096 13.6322V17.2414C27.1096 18.1105 26.405 18.815 25.536 18.815H24.5994C23.4948 18.815 22.5994 17.9196 22.5994 16.815V2.26425C22.5994 1.15968 23.4948 0.264256 24.5994 0.264256H26.4404C27.323 0.264256 28.1013 0.842823 28.3556 1.68801L28.933 3.60702C29.5056 5.51028 32.203 5.5036 32.7662 3.59751L33.3276 1.69752C33.5787 0.847561 34.3593 0.264256 35.2456 0.264256H37.0525Z" fill="white"/>
<path d="M74.0678 16.815C74.0678 17.9196 73.1724 18.815 72.0678 18.815H70.8048C70.0415 18.815 69.3447 18.3805 69.0088 17.6951L67.7465 15.1191C66.814 13.2161 63.9505 13.88 63.9505 15.9992V16.815C63.9505 17.9196 63.0551 18.815 61.9505 18.815H61.4403C60.3358 18.815 59.4403 17.9196 59.4403 16.815V2.26425C59.4403 1.15968 60.3358 0.264256 61.4403 0.264256H62.7008C63.4655 0.264256 64.1632 0.700216 64.4984 1.38745L65.7601 3.97398C66.69 5.8804 69.5576 5.21829 69.5576 3.09717V2.26426C69.5576 1.15969 70.453 0.264256 71.5576 0.264256H72.0678C73.1724 0.264256 74.0678 1.15969 74.0678 2.26426V16.815Z" fill="white"/>
<path d="M81.9942 3.88456C80.958 3.88456 80.1179 4.72457 80.1179 5.76078V5.76078C80.1179 6.79698 80.958 7.637 81.9942 7.637H83.7697C84.733 7.637 85.5138 8.41785 85.5138 9.38108V9.38108C85.5138 10.3443 84.733 11.1252 83.7697 11.1252H82.1179C81.0134 11.1252 80.1179 12.0206 80.1179 13.1252V13.1947C80.1179 14.2993 81.0134 15.1947 82.1179 15.1947H84.4949C85.4946 15.1947 86.3051 16.0051 86.3051 17.0049V17.0049C86.3051 18.0046 85.4946 18.815 84.4949 18.815H77.6078C76.5032 18.815 75.6078 17.9196 75.6078 16.815V2.26425C75.6078 1.15968 76.5032 0.264256 77.6078 0.264256H84.4949C85.4946 0.264256 86.3051 1.07469 86.3051 2.07441V2.07441C86.3051 3.07413 85.4946 3.88456 84.4949 3.88456H81.9942Z" fill="white"/>
<path d="M49.2971 18.6779C47.6667 18.6801 46.6488 18.596 45.2149 17.7856C43.7982 16.9751 42.6667 15.8474 41.8201 14.4026C40.9909 12.9402 40.5763 11.3016 40.5763 9.48678C40.5763 7.67198 40.9909 6.04218 41.8201 4.59738C42.6667 3.15259 43.7982 2.02494 45.2149 1.21445C46.6488 0.403951 47.6667 0.319897 49.2971 0.322074C50.9176 0.324237 51.9368 0.403951 53.3534 1.21445C54.7873 2.02494 55.9103 3.15259 56.7222 4.59738C57.5515 6.04218 57.9661 7.67198 57.9661 9.48678C57.9661 11.3016 57.5515 12.9402 56.7222 14.4026C55.893 15.8474 54.77 16.9751 53.3534 17.7856C51.9368 18.596 50.9176 18.6758 49.2971 18.6779ZM49.2971 14.555C50.4907 14.5434 51.2716 14.385 52.1354 13.3983C53.0165 12.4116 53.4571 11.1078 53.4571 9.48678C53.4571 7.84817 53.0165 6.54433 52.1354 5.57526C51.2716 4.58857 50.4907 4.43012 49.2971 4.4186C48.0883 4.40693 47.288 4.57976 46.4069 5.54883C45.5431 6.5179 45.1112 7.83055 45.1112 9.48678C45.1112 11.1254 45.5431 12.438 46.4069 13.4247C47.288 14.3938 48.0883 14.5666 49.2971 14.555Z" fill="white"/>
<path d="M107.71 0.264257C108.814 0.264257 109.71 1.15969 109.71 2.26426V12.8957C109.71 14.8512 109.157 16.3574 108.05 17.4145C106.962 18.4715 105.487 19 103.626 19C101.677 19 100.115 18.4451 98.9383 17.3352C98.1759 16.6158 97.6605 15.7003 97.3922 14.5886C97.1331 13.5148 98.0693 12.605 99.1738 12.605H99.7847C100.815 12.605 101.491 13.5628 102.125 14.3755V14.3755C102.441 14.7631 102.897 14.9569 103.494 14.9569C104.039 14.9569 104.46 14.7807 104.759 14.4284C105.057 14.076 105.206 13.5651 105.206 12.8957V2.26426C105.206 1.15969 106.102 0.264257 107.206 0.264257H107.71Z" fill="white"/>
<path d="M137.58 19C136.228 19 135.016 18.7798 133.945 18.3394C132.874 17.8989 132.014 17.2471 131.364 16.3839C131.114 16.0423 130.911 15.6731 130.754 15.2763C130.34 14.2279 131.295 13.2656 132.422 13.2656H133.379C134.389 13.2656 135.123 14.169 135.868 14.8512V14.8512C136.272 15.2035 136.798 15.3797 137.448 15.3797C138.115 15.3797 138.642 15.2299 139.028 14.9305C139.414 14.6134 139.607 14.1817 139.607 13.6356C139.607 13.1776 139.449 12.7988 139.133 12.4993C138.835 12.1998 138.457 11.9532 138.001 11.7594C137.562 11.5656 136.93 11.3454 136.105 11.0987C134.911 10.7288 133.937 10.3588 133.182 9.98887C132.427 9.61892 131.777 9.07279 131.233 8.35049C130.688 7.62819 130.416 6.68568 130.416 5.52295C130.416 3.79648 131.04 2.44877 132.286 1.47983C133.533 0.493278 135.157 0 137.158 0C139.195 0 140.836 0.493278 142.083 1.47983C142.79 2.02955 143.311 2.70401 143.645 3.50322C144.087 4.5587 143.125 5.54938 141.981 5.54938H140.807C139.912 5.54938 139.243 4.72024 138.554 4.14882V4.14882C138.15 3.79648 137.632 3.62031 137 3.62031C136.456 3.62031 136.017 3.77005 135.683 4.06954C135.35 4.35142 135.183 4.76542 135.183 5.31154C135.183 5.91053 135.464 6.37738 136.026 6.7121C136.588 7.04683 137.465 7.40797 138.659 7.79555C139.853 8.20074 140.819 8.58832 141.556 8.95828C142.311 9.32823 142.961 9.86555 143.505 10.5702C144.049 11.2749 144.322 12.1822 144.322 13.2921C144.322 14.3491 144.049 15.3092 143.505 16.1725C142.978 17.0357 142.206 17.7228 141.188 18.2337C140.169 18.7446 138.967 19 137.58 19Z" fill="white"/>
<path d="M157.271 0.264257C158.375 0.264257 159.271 1.15969 159.271 2.26426V16.815C159.271 17.9196 158.375 18.815 157.271 18.815H156.767C155.663 18.815 154.767 17.9196 154.767 16.815V13.178C154.767 12.0735 153.872 11.178 152.767 11.178H152.016C150.912 11.178 150.016 12.0735 150.016 13.178V16.815C150.016 17.9196 149.121 18.815 148.016 18.815H147.513C146.408 18.815 145.513 17.9196 145.513 16.815V2.26426C145.513 1.15969 146.408 0.264257 147.513 0.264257H148.016C149.121 0.264257 150.016 1.15969 150.016 2.26426V5.5313C150.016 6.63587 150.912 7.5313 152.016 7.5313H152.767C153.872 7.5313 154.767 6.63587 154.767 5.5313V2.26426C154.767 1.15969 155.663 0.264257 156.767 0.264257H157.271Z" fill="white"/>
<path d="M164.089 0.264257C165.194 0.264257 166.089 1.15969 166.089 2.26426V16.815C166.089 17.9196 165.194 18.815 164.089 18.815H163.586C162.481 18.815 161.586 17.9196 161.586 16.815V2.26426C161.586 1.15969 162.481 0.264257 163.586 0.264257H164.089Z" fill="white"/>
<path d="M120.199 18.6938C118.567 18.696 117.549 18.6116 116.114 17.7978C114.697 16.9841 113.564 15.8519 112.717 14.4013C111.888 12.933 111.473 11.2879 111.473 9.46576C111.473 7.64367 111.888 6.00733 112.717 4.55673C113.564 3.10613 114.697 1.97396 116.114 1.16021C117.549 0.346465 118.567 0.262072 120.199 0.264257C121.82 0.266429 122.84 0.346465 124.257 1.16021C125.692 1.97396 126.816 3.10613 127.628 4.55673C128.458 6.00733 128.873 7.64367 128.873 9.46576C128.873 11.2879 128.458 12.933 127.628 14.4013C126.799 15.8519 125.675 16.9841 124.257 17.7978C122.84 18.6116 121.82 18.6916 120.199 18.6938ZM120.199 14.5543C121.393 14.5427 122.174 14.3836 123.039 13.393C123.92 12.4023 124.361 11.0933 124.361 9.46576C124.361 7.82057 123.92 6.5115 123.039 5.53854C122.174 4.54789 121.393 4.3888 120.199 4.37723C118.989 4.36551 118.188 4.53904 117.307 5.512C116.442 6.48496 116.01 7.80288 116.01 9.46576C116.01 11.1109 116.442 12.4289 117.307 13.4195C118.188 14.3925 118.989 14.566 120.199 14.5543Z" fill="white"/>
</svg>
