<svg width="30" height="30" viewBox="0 0 30 30" fill="none" xmlns="http://www.w3.org/2000/svg">
<path d="M23.6591 17.3641C25.8239 14.84 25.6332 11.0951 24.8619 10.8938C24.0905 10.6926 24.2004 11.2853 22.4598 12.832C21.2607 13.819 19.9825 14.7025 18.6384 15.4732C15.7377 17.1178 12.8038 17.9221 11.5473 18.2269C9.3314 18.7646 7.88217 18.8422 6.67226 18.7792C5.32275 18.7084 4.59481 18.4755 4.15162 18.2989C3.11155 17.9038 2.18953 17.2428 1.47476 16.3799C1.47476 16.3799 -0.00992175 14.5643 5.00069e-05 12.0671V11.8905C0.0356172 10.8712 0.23085 9.8642 0.578412 8.90728C1.99772 4.97357 4.76657 3.08688 6.95662 2.12068C6.95662 2.12068 10.9579 -1.3416e-06 16.6665 0C17.6492 0 19.0307 0.00718936 20.4834 0.832418C21.9361 1.65765 24.1453 6.40684 19.8393 6.6296C15.5332 6.85236 13.2876 7.35729 10.2417 8.62641C8.69578 9.27054 7.53634 9.85026 6.31249 10.752C5.26248 11.5257 3.98513 12.8893 4.25127 13.8439C4.51741 14.7984 5.72727 15.1364 5.72727 15.1364C6.89221 15.5186 7.93794 15.3544 8.24488 15.3254C8.79162 15.2737 10.0804 15.1515 12.4071 14.3562C14.0075 13.8029 15.9394 13.1124 17.3916 12.2335C18.7442 11.4149 21.5946 9.33496 22.7472 7.97727C24.2193 6.24312 24.6904 5.97422 25.25 5.98547C26.1496 6.00234 27.5688 8.30434 28.2921 10.6181C29.1219 13.3283 29.3775 14.7173 29.6516 17.0807C29.7558 18.7252 29.8566 20.3485 29.1918 22.2934C28.672 23.8083 27.809 25.178 26.6723 26.2923C25.51 27.4296 24.3854 27.9628 23.3882 28.4296C20.5474 29.7502 18.0301 29.8987 16.4335 29.9752C13.2824 30.1259 11.0454 29.5466 10.5125 29.4015C9.53419 29.1583 8.58659 28.802 7.68827 28.3396C6.65897 27.803 4.78713 26.9789 3.60714 25.25C3.0875 24.4884 2.61376 23.8616 2.77109 22.3778C2.94264 21.3692 3.37499 21.1026 4.69453 21.1148C7.51523 21.5337 9.17993 21.6609 12.2727 21.7277C17.7729 21.849 20.4133 21.1486 23.6591 17.3641Z" fill="white"/>
<path d="M23.1958 2.4318C23.2798 1.41824 24.0999 0.676588 25.1084 0.681831C26.1111 0.687044 26.9177 1.42395 27.0012 2.4318C27.0921 3.52714 26.1982 4.49428 25.1084 4.49996C24.0133 4.50566 23.1045 3.5324 23.1958 2.4318Z" fill="white"/>
</svg>
